<mxfile host="app.diagrams.net" modified="2023-10-25T01:56:42.172Z" agent="Mozilla/5.0 (Windows NT 10.0; Win64; x64) AppleWebKit/537.36 (KHTML, like Gecko) Chrome/118.0.0.0 Safari/537.36" etag="Zq9cePD1OlUJgzy7QZNz" version="22.0.7" type="github">
  <diagram name="Page-1" id="64c3da0e-402f-94eb-ee01-a36477274f13">
    <mxGraphModel dx="1420" dy="742" grid="0" gridSize="10" guides="1" tooltips="1" connect="1" arrows="1" fold="1" page="0" pageScale="1" pageWidth="1169" pageHeight="827" background="#FFF4C3" math="0" shadow="0">
      <root>
        <mxCell id="0" />
        <mxCell id="1" parent="0" />
        <mxCell id="2" value="Future" style="whiteSpace=wrap;rounded=1;shadow=1;fillColor=#10739E;strokeColor=none;fontColor=#FFFFFF;fontStyle=1;fontSize=24" parent="1" vertex="1">
          <mxGeometry x="318" y="16" width="340" height="60" as="geometry" />
        </mxCell>
        <mxCell id="3" value="Informal" style="whiteSpace=wrap;rounded=1;fillColor=#F2931E;strokeColor=none;shadow=1;fontColor=#FFFFFF;fontStyle=1;fontSize=18;" parent="1" vertex="1">
          <mxGeometry x="235" y="143.9999999999998" width="140" height="60" as="geometry" />
        </mxCell>
        <mxCell id="9eAketKLKD8DFDDSpB76-242" value="" style="edgeStyle=orthogonalEdgeStyle;rounded=0;orthogonalLoop=1;jettySize=auto;html=1;" edge="1" parent="1" source="5" target="2">
          <mxGeometry relative="1" as="geometry" />
        </mxCell>
        <mxCell id="5" value="Formal" style="whiteSpace=wrap;rounded=1;fillColor=#F2931E;strokeColor=none;shadow=1;fontColor=#FFFFFF;fontStyle=1;fontSize=18;" parent="1" vertex="1">
          <mxGeometry x="609" y="143.9999999999998" width="140" height="60" as="geometry" />
        </mxCell>
        <mxCell id="10" value="Planned" style="whiteSpace=wrap;rounded=1;fillColor=#12AAB5;strokeColor=none;shadow=1;fontColor=#FFFFFF;fontStyle=1;fontSize=18;" parent="1" vertex="1">
          <mxGeometry x="74" y="271.0000000000001" width="120" height="60" as="geometry" />
        </mxCell>
        <mxCell id="12" value="Unplanned" style="whiteSpace=wrap;rounded=1;fillColor=#12AAB5;strokeColor=none;shadow=1;fontColor=#FFFFFF;fontStyle=1;fontSize=18;" parent="1" vertex="1">
          <mxGeometry x="404.5" y="274.0000000000001" width="120" height="60" as="geometry" />
        </mxCell>
        <mxCell id="103" value="" style="edgeStyle=elbowEdgeStyle;elbow=vertical;rounded=0;fontColor=#000000;endArrow=none;endFill=0;strokeWidth=8;strokeColor=#23445D;entryX=0.5;entryY=0;entryDx=0;entryDy=0;exitX=0.5;exitY=1;exitDx=0;exitDy=0;" parent="1" source="3" target="10" edge="1">
          <mxGeometry width="100" height="100" relative="1" as="geometry">
            <mxPoint x="46" y="264" as="sourcePoint" />
            <mxPoint x="146" y="164" as="targetPoint" />
          </mxGeometry>
        </mxCell>
        <mxCell id="104" value="" style="edgeStyle=elbowEdgeStyle;elbow=vertical;rounded=0;fontColor=#000000;endArrow=none;endFill=0;strokeWidth=8;strokeColor=#23445D;entryX=0.5;entryY=0;entryDx=0;entryDy=0;exitX=0.5;exitY=1;exitDx=0;exitDy=0;" parent="1" source="3" edge="1">
          <mxGeometry width="100" height="100" relative="1" as="geometry">
            <mxPoint x="290" y="204.99999999999977" as="sourcePoint" />
            <mxPoint x="463.5" y="275.0000000000001" as="targetPoint" />
            <Array as="points">
              <mxPoint x="373" y="238" />
            </Array>
          </mxGeometry>
        </mxCell>
        <mxCell id="199" value="will&#xa;Future Simple" style="whiteSpace=wrap;rounded=1;fillColor=#dae8fc;strokeColor=#6c8ebf;shadow=1;fontSize=18;fontStyle=1" parent="1" vertex="1">
          <mxGeometry x="609" y="404" width="139" height="60" as="geometry" />
        </mxCell>
        <mxCell id="227" value="" style="edgeStyle=elbowEdgeStyle;elbow=vertical;rounded=0;fontColor=#000000;endArrow=none;endFill=0;strokeWidth=8;strokeColor=#23445D;entryX=0.5;entryY=0;entryDx=0;entryDy=0;" parent="1" source="5" target="199" edge="1">
          <mxGeometry width="100" height="100" relative="1" as="geometry">
            <mxPoint x="606" y="264" as="sourcePoint" />
            <mxPoint x="786" y="264" as="targetPoint" />
          </mxGeometry>
        </mxCell>
        <mxCell id="229" value="" style="edgeStyle=elbowEdgeStyle;elbow=vertical;rounded=0;fontColor=#000000;endArrow=none;endFill=0;strokeWidth=8;strokeColor=#23445D;entryX=0.5;entryY=0;entryDx=0;entryDy=0;" parent="1" source="2" target="3" edge="1">
          <mxGeometry width="100" height="100" relative="1" as="geometry">
            <mxPoint x="96" y="114" as="sourcePoint" />
            <mxPoint x="256" y="144" as="targetPoint" />
          </mxGeometry>
        </mxCell>
        <mxCell id="234" value="" style="edgeStyle=elbowEdgeStyle;elbow=vertical;rounded=0;fontColor=#000000;endArrow=none;endFill=0;strokeWidth=8;strokeColor=#23445D;exitX=0.5;exitY=1;exitDx=0;exitDy=0;entryX=0.5;entryY=0;entryDx=0;entryDy=0;" parent="1" source="2" target="5" edge="1">
          <mxGeometry width="100" height="100" relative="1" as="geometry">
            <mxPoint x="488" y="80" as="sourcePoint" />
            <mxPoint x="681" y="134" as="targetPoint" />
            <Array as="points">
              <mxPoint x="586" y="110" />
            </Array>
          </mxGeometry>
        </mxCell>
        <mxCell id="9eAketKLKD8DFDDSpB76-235" value="" style="edgeStyle=elbowEdgeStyle;elbow=vertical;rounded=0;fontColor=#000000;endArrow=none;endFill=0;strokeWidth=8;strokeColor=#23445D;exitX=0.5;exitY=1;exitDx=0;exitDy=0;entryX=0.5;entryY=0;entryDx=0;entryDy=0;" edge="1" parent="1" source="10" target="9eAketKLKD8DFDDSpB76-237">
          <mxGeometry width="100" height="100" relative="1" as="geometry">
            <mxPoint x="156" y="334" as="sourcePoint" />
            <mxPoint x="56" y="404" as="targetPoint" />
          </mxGeometry>
        </mxCell>
        <mxCell id="9eAketKLKD8DFDDSpB76-236" value="" style="edgeStyle=elbowEdgeStyle;elbow=vertical;rounded=0;fontColor=#000000;endArrow=none;endFill=0;strokeWidth=8;strokeColor=#23445D;exitX=0.5;exitY=1;exitDx=0;exitDy=0;" edge="1" parent="1">
          <mxGeometry width="100" height="100" relative="1" as="geometry">
            <mxPoint x="134" y="330" as="sourcePoint" />
            <mxPoint x="224" y="410" as="targetPoint" />
            <Array as="points">
              <mxPoint x="236" y="368" />
            </Array>
          </mxGeometry>
        </mxCell>
        <mxCell id="9eAketKLKD8DFDDSpB76-237" value="going toÂ " style="whiteSpace=wrap;rounded=1;fillColor=#dae8fc;strokeColor=#6c8ebf;shadow=1;fontSize=18;fontStyle=1" vertex="1" parent="1">
          <mxGeometry x="1" y="404" width="96" height="60" as="geometry" />
        </mxCell>
        <mxCell id="9eAketKLKD8DFDDSpB76-238" value="present continuous" style="whiteSpace=wrap;rounded=1;fillColor=#dae8fc;strokeColor=#6c8ebf;shadow=1;fontSize=18;fontStyle=1" vertex="1" parent="1">
          <mxGeometry x="131" y="404" width="185" height="60" as="geometry" />
        </mxCell>
        <mxCell id="9eAketKLKD8DFDDSpB76-241" value="" style="edgeStyle=orthogonalEdgeStyle;rounded=0;orthogonalLoop=1;jettySize=auto;html=1;" edge="1" parent="1" source="9eAketKLKD8DFDDSpB76-239" target="12">
          <mxGeometry relative="1" as="geometry" />
        </mxCell>
        <mxCell id="9eAketKLKD8DFDDSpB76-239" value="will&#xa;Future Simple" style="whiteSpace=wrap;rounded=1;fillColor=#dae8fc;strokeColor=#6c8ebf;shadow=1;fontSize=18;fontStyle=1" vertex="1" parent="1">
          <mxGeometry x="396" y="404" width="137" height="60" as="geometry" />
        </mxCell>
        <mxCell id="9eAketKLKD8DFDDSpB76-240" value="" style="edgeStyle=elbowEdgeStyle;elbow=vertical;rounded=0;fontColor=#000000;endArrow=none;endFill=0;strokeWidth=8;strokeColor=#23445D;entryX=0.5;entryY=0;entryDx=0;entryDy=0;exitX=0.5;exitY=1;exitDx=0;exitDy=0;" edge="1" parent="1" source="12" target="9eAketKLKD8DFDDSpB76-239">
          <mxGeometry width="100" height="100" relative="1" as="geometry">
            <mxPoint x="456" y="334" as="sourcePoint" />
            <mxPoint x="456" y="394" as="targetPoint" />
            <Array as="points">
              <mxPoint x="465" y="368" />
            </Array>
          </mxGeometry>
        </mxCell>
      </root>
    </mxGraphModel>
  </diagram>
</mxfile>
